<svg xmlns="http://www.w3.org/2000/svg" width="58" height="58" fill="none"><path d="M42.347 34.203a2.23 2.23 0 01-1.343-.458c-.397-.299-.707-.723-.89-1.22s-.231-1.044-.138-1.571a2.84 2.84 0 01.661-1.392c.338-.38.769-.639 1.237-.744a2.17 2.17 0 011.396.155c.442.206.819.554 1.084 1.001s.407.973.407 1.51c0 .721-.255 1.413-.708 1.922s-1.068.796-1.709.796zm-26.694 0a2.23 2.23 0 01-1.343-.458c-.397-.299-.707-.723-.89-1.22s-.231-1.044-.137-1.571a2.84 2.84 0 01.661-1.392c.338-.38.769-.639 1.237-.744a2.17 2.17 0 011.396.155c.442.206.819.554 1.084 1.001s.407.973.407 1.51c0 .721-.255 1.413-.708 1.922s-1.068.796-1.709.796zm27.56-16.367l4.827-9.402c.077-.129.129-.274.154-.426a1.27 1.27 0 00-.009-.46 1.2 1.2 0 00-.171-.418 1.062 1.062 0 00-.305-.307.93.93 0 00-.388-.145.9.9 0 00-.408.041.98.98 0 00-.359.22c-.105.1-.191.224-.252.363l-4.888 9.524c-3.904-1.97-8.135-2.988-12.414-2.988s-8.509 1.018-12.414 2.988l-4.888-9.524a1.137 1.137 0 00-.252-.363.98.98 0 00-.36-.22.9.9 0 00-.407-.041.93.93 0 00-.388.145c-.119.078-.223.182-.305.307s-.14.267-.171.418a1.27 1.27 0 00-.009.46c.025.153.077.298.154.426l4.827 9.402C6.498 22.908.83 32.347 0 43.5h58c-.83-11.153-6.499-20.592-14.787-25.664z" fill="#fff"/></svg>