<svg xmlns="http://www.w3.org/2000/svg" width="42" height="62" fill="none" xmlns:v="https://vecta.io/nano"><path d="M34.858 32.538c-.022-4.444 1.794-7.798 5.469-10.269-2.056-3.257-5.163-5.05-9.264-5.401-3.883-.339-8.127 2.507-9.68 2.507-1.641 0-5.403-2.386-8.356-2.386C6.923 17.098.438 22.378.438 33.119c0 3.173.525 6.45 1.575 9.833 1.4 4.444 6.453 15.343 11.725 15.161 2.756-.073 4.703-2.168 8.291-2.168 3.478 0 5.283 2.168 8.356 2.168 5.316-.085 9.888-9.99 11.222-14.446-7.131-3.718-6.748-10.898-6.748-11.129zm-6.191-19.884c2.986-3.923 2.712-7.496 2.625-8.779-2.636.17-5.687 1.986-7.427 4.226-1.914 2.398-3.041 5.364-2.8 8.707 2.855.242 5.458-1.38 7.602-4.154z" fill="#fff"/></svg>