<svg xmlns="http://www.w3.org/2000/svg" width="41" height="53" fill="none" xmlns:v="https://vecta.io/nano"><g clip-path="url(#A)"><path d="M20.207 12.764c.092.052.165.176.275.176.101 0 .256-.042.265-.155.018-.145-.174-.238-.293-.3-.155-.072-.357-.104-.503-.01-.037.021-.073.072-.055.114.027.135.21.114.311.176zm-2.004.176c.11 0 .183-.124.275-.176.101-.062.284-.041.32-.166.018-.041-.018-.093-.055-.114-.146-.093-.348-.062-.503.01-.119.062-.311.155-.293.3.009.104.165.155.256.145zM38.438 41.8c-.33-.414-.485-1.201-.659-2.039-.165-.838-.357-1.739-.961-2.319-.119-.114-.238-.217-.366-.3a1.94 1.94 0 0 0-.375-.207c.842-2.826.512-5.642-.339-8.188-1.043-3.116-2.864-5.838-4.256-7.702-1.565-2.226-3.084-4.337-3.057-7.453C28.471 8.84 28.892.01 21.488 0c-9.371-.021-7.029 10.704-7.129 13.995-.155 2.422-.586 4.327-2.059 6.697-1.73 2.329-4.164 6.087-5.317 10.01-.549 1.853-.805 3.737-.567 5.517-.595.6-1.043 1.522-1.519 2.091-.384.445-.943.611-1.556.859s-1.281.621-1.693 1.501c-.192.404-.256.838-.256 1.284 0 .404.055.818.11 1.221.11.838.229 1.625.073 2.153-.476 1.491-.54 2.526-.201 3.281.348.756 1.043 1.087 1.84 1.273 1.583.373 3.734.279 5.427 1.294 1.812 1.077 3.652 1.46 5.116 1.077 1.062-.269 1.931-.994 2.37-2.091 1.144-.01 2.407-.559 4.42-.683 1.364-.124 3.075.549 5.043.424.055.238.128.476.229.694v.01c.76 1.729 2.178 2.515 3.688 2.381 1.519-.135 3.121-1.139 4.42-2.888 1.245-1.698 3.295-2.402 4.658-3.333.677-.466 1.226-1.045 1.272-1.894.037-.849-.403-1.791-1.419-3.074zM20.473 9.037c.897-2.298 3.13-2.257 4.027-.041.595 1.47.329 3.199-.394 4.182-.146-.083-.54-.269-1.153-.507.101-.124.284-.279.357-.476.439-1.221-.018-2.795-.833-2.826-.668-.052-1.272 1.118-1.08 2.381-.375-.207-.86-.362-1.19-.455a4.62 4.62 0 0 1 .265-2.257zm-3.725-1.19c.924 0 1.903 1.47 1.748 3.468a3.12 3.12 0 0 0-.933.476c.11-.921-.302-2.081-.879-2.029-.769.072-.897 2.195-.165 2.909.091.083.174-.021-.54.569-1.428-1.511-.961-5.393.769-5.393zm-1.245 6.283l1.29-1.087c.43-.455 1.235-1.47 2.553-1.47.65 0 1.428.238 2.37.921.577.424 1.034.455 2.068.963.769.362 1.254 1.004.961 1.884-.238.735-1.007 1.491-2.077 1.874-1.016.373-1.812 1.656-3.496 1.542-.357-.021-.641-.104-.879-.217-.732-.362-1.116-1.077-1.83-1.553-.787-.497-1.208-1.076-1.345-1.584-.128-.507 0-.932.384-1.273zm.302 34.574c-.247 3.633-4.018 3.561-6.891 1.863-2.736-1.636-6.278-.673-7.001-2.267-.22-.487-.22-1.315.238-2.733v-.021c.22-.787.055-1.656-.055-2.474-.11-.807-.165-1.553.082-2.07.32-.694.778-.942 1.354-1.17.943-.383 1.08-.352 1.794-1.025.503-.59.869-1.335 1.309-1.863.467-.569.915-.838 1.62-.714.741.124 1.382.704 2.004 1.656l1.794 3.685c.869 2.06 3.944 5.01 3.752 7.132zm-.128-2.681c-.375-.683-.879-1.408-1.318-2.029.65 0 1.3-.228 1.528-.921.21-.642 0-1.542-.677-2.578-1.235-1.884-3.505-3.364-3.505-3.364-1.235-.87-1.931-1.936-2.251-3.095s-.275-2.412-.027-3.644c.476-2.37 1.702-4.679 2.489-6.128.21-.176.073.331-.796 2.153-.778 1.667-2.233 5.517-.238 8.53.055-2.143.503-4.327 1.263-6.366 1.098-2.836 3.414-7.753 3.597-11.666a8.72 8.72 0 0 0 .567.424c.421.28.741.694 1.153 1.066 1.135 1.035 2.608.952 3.88.124.567-.362 1.025-.776 1.455-.932.906-.321 1.629-.89 2.041-1.553.705 3.147 2.352 7.691 3.404 9.907.558 1.18 1.675 3.675 2.16 6.687.302-.01.641.041.998.145 1.263-3.695-1.071-7.681-2.132-8.788-.43-.476-.448-.683-.238-.673 1.153 1.159 2.672 3.488 3.221 6.107.256 1.201.302 2.453.037 3.695 1.501.704 3.285 1.853 2.81 3.602-.201-.01-.293 0-.384 0 .293-1.045-.357-1.822-2.087-2.702-1.794-.89-3.295-.89-3.505 1.294-1.107.435-1.675 1.522-1.958 2.826-.256 1.159-.33 2.557-.403 4.13-.046.797-.329 1.863-.622 3.002-2.938 2.371-7.019 3.406-10.46.745zm23.557-1.19c-.082 1.739-3.77 2.06-5.784 4.813-1.208 1.625-2.691 2.526-3.99 2.64s-2.425-.497-3.084-1.998c-.43-1.149-.22-2.391.101-3.758.339-1.47.842-2.981.906-4.203.073-1.573.156-2.95.384-4.006.238-1.066.604-1.781 1.254-2.184.027-.021.064-.031.091-.052.073 1.366.668 2.754 1.721 3.054 1.153.342 2.81-.776 3.514-1.687.824-.031 1.437-.093 2.068.528.906.88.65 3.136 1.565 4.306.97 1.201 1.281 2.019 1.254 2.547zM15.86 15.393c.183.197.43.466.732.735.604.538 1.446 1.097 2.498 1.097 1.062 0 2.059-.611 2.91-1.118.448-.269.997-.725 1.354-1.076s.54-.652.284-.683-.238.269-.549.528c-.403.331-.888.766-1.272 1.015-.677.435-1.785 1.056-2.736 1.056s-1.711-.497-2.279-1.004c-.284-.259-.522-.518-.705-.714-.137-.145-.174-.476-.393-.507-.128-.01-.165.383.155.673z" fill="#fff"/></g><defs><clipPath id="A"><path fill="#fff" d="M0 0h41v53H0z"/></clipPath></defs></svg>