<svg xmlns="http://www.w3.org/2000/svg" viewBox="0 0 39 96" stroke-linejoin="round" stroke-miterlimit="2" fill="#fff"><path d="M18.22 0v4.253l-.807.052c-3.681.233-6.753 1.448-7.038 2.775-.049.255-.039.27.207.27h.255v12.9h16.538V7.35h.286c.285 0 .285 0 .196-.3-.384-1.312-3.031-2.392-6.654-2.715l-1.014-.09V0H18.22zm-2.559 7.575v7.875h-4.233V7.575h4.233zm6.398 0v7.875h-5.906V7.575h5.906zm4.824 0v7.875H22.65V7.575h4.233zM5.089 20.565c-.03.135-.099 1.245-.148 2.46l-.502 9.562-.689 12.9-.492 9.226-.492 9.247-.197 3.638-.492 9.24-.493 9.15-.452 9.915c.078.067 36.658.067 36.746 0 .059-.045-.01-1.358-.266-5.415l-.196-3.188-.197-3.112-1.989-32.603-1.9-31.26H5.138l-.049.24z"/></svg>