<svg xmlns="http://www.w3.org/2000/svg" width="150" height="200" fill="none"><g clip-path="url(#A)"><path d="M118.75 134.717c0-35.742-27.906-45.692-49.294-59.092-12.994-8.992-11.35-30.483 7.263-31.933 10.325-.833 20.944 3.25 30.537 7.742l4.525-27.458c-11.337-4.592-21.481-6.692-30.531-7.008V0h-12.5v17.783c-24.312 4.458-37.3 24.792-37.3 47.5 0 40.634 35.581 46.834 47.225 54.059 15.875 9.466 12.938 29.166-1.431 33.508-12.456 3.758-28.362-2.808-40.312-8.992l-5.681 27.4c11.169 7.692 24.569 11.809 37.5 12.109V200h12.5v-17.542c20.706-3.866 37.531-19.108 37.5-47.741z" fill="#15bb30"/></g><defs><clipPath id="A"><path fill="#fff" d="M0 0h150v200H0z"/></clipPath></defs></svg>