<svg xmlns="http://www.w3.org/2000/svg" width="175" height="200" fill="none" xmlns:v="https://vecta.io/nano"><g clip-path="url(#A)"><path d="M123.958 81.342V41.667C123.958 18.658 107.64 0 87.5 0 67.353 0 51.042 18.658 51.042 41.667v39.675c-13.322 12.217-21.875 30.95-21.875 51.991C29.167 170.15 55.286 200 87.5 200s58.333-29.85 58.333-66.667c0-21.041-8.553-39.775-21.875-51.991zM87.5 150c-8.05 0-14.583-7.467-14.583-16.667s6.533-16.666 14.583-16.666 14.583 7.466 14.583 16.666S95.55 150 87.5 150zm21.875-78.442c-6.759-3.133-14.131-4.892-21.875-4.892s-15.116 1.758-21.875 4.892V41.667c0-13.783 9.815-25 21.875-25s21.875 11.217 21.875 25v29.892z" fill="#f7b554"/></g><defs><clipPath id="A"><path fill="#fff" d="M0 0h175v200H0z"/></clipPath></defs></svg>